<svg xmlns="http://www.w3.org/2000/svg" xmlns:xlink="http://www.w3.org/1999/xlink" width="21.786" height="25.643" viewBox="0 0 21.786 25.643">
  <defs>
    <clipPath id="clip-path">
      <rect width="18.408" height="19.429" fill="none"/>
    </clipPath>
  </defs>
  <g id="Group_2215" data-name="Group 2215" transform="translate(0 0.143)">
    <g id="alarm" transform="translate(0 6.071)" clip-path="url(#clip-path)">
      <path id="Path_12" data-name="Path 12" d="M17.715,13.6l-2.186-1.457V6.436a6.436,6.436,0,1,0-12.871,0v5.707L.715,13.721a1.818,1.818,0,0,0-.607,1.821,1.609,1.609,0,0,0,1.579,1.093H16.865a1.677,1.677,0,0,0,1.579-1.214A1.908,1.908,0,0,0,17.715,13.6Zm-15.3,1.214,1.7-1.336a1.05,1.05,0,0,0,.364-.729V6.436A4.562,4.562,0,0,1,8.972,1.943a4.562,4.562,0,0,1,4.493,4.493v6.193a.917.917,0,0,0,.486.85l1.943,1.336Z" transform="translate(-0.065)" fill="#272727"/>
      <path id="Path_13" data-name="Path 13" d="M7.821,16.321A1.788,1.788,0,0,0,9.643,14.5H6A1.721,1.721,0,0,0,7.821,16.321Z" transform="translate(1.207 3.107)" fill="#272727"/>
    </g>
    <g id="Ellipse_5" data-name="Ellipse 5" transform="translate(15.786 -0.143)" fill="#00e5ff" stroke="#00e5ff" stroke-width="1">
      <circle cx="3" cy="3" r="3" stroke="none"/>
      <circle cx="3" cy="3" r="2.5" fill="none"/>
    </g>
  </g>
</svg>
