<svg id="information" xmlns="http://www.w3.org/2000/svg" width="23.546" height="23.546" viewBox="0 0 23.546 23.546">
  <g id="Group_2309" data-name="Group 2309">
    <g id="Group_2308" data-name="Group 2308">
      <circle id="Ellipse_1419" data-name="Ellipse 1419" cx="1.15" cy="1.15" r="1.15" transform="translate(10.623 16.257)" fill="#fff"/>
      <path id="Path_2082" data-name="Path 2082" d="M11.773,0A11.773,11.773,0,1,0,23.546,11.773,11.767,11.767,0,0,0,11.773,0Zm0,21.707a9.934,9.934,0,1,1,9.934-9.934A9.928,9.928,0,0,1,11.773,21.707Z" fill="#fff"/>
      <path id="Path_2083" data-name="Path 2083" d="M179.679,128.5A3.683,3.683,0,0,0,176,132.179a.92.92,0,0,0,1.84,0,1.84,1.84,0,1,1,1.84,1.84.92.92,0,0,0-.92.92v2.3a.92.92,0,0,0,1.84,0v-1.5a3.679,3.679,0,0,0-.92-7.242Z" transform="translate(-167.906 -122.59)" fill="#fff"/>
    </g>
  </g>
</svg>
