<svg xmlns="http://www.w3.org/2000/svg" xmlns:xlink="http://www.w3.org/1999/xlink" width="20.326" height="20.279" viewBox="0 0 20.326 20.279">
  <defs>
    <clipPath id="clip-path">
      <rect width="20.326" height="20.279" fill="none"/>
    </clipPath>
  </defs>
  <g id="serach" clip-path="url(#clip-path)">
    <path id="Path_7" data-name="Path 7" d="M20.136,18.8l-4.493-4.493a8.742,8.742,0,1,0-12.993.729,8.836,8.836,0,0,0,6.193,2.55,8.378,8.378,0,0,0,5.464-1.943L18.8,20.136a.892.892,0,0,0,.729.243,1.726,1.726,0,0,0,.729-.243A1.1,1.1,0,0,0,20.136,18.8ZM3.864,13.579a7.124,7.124,0,0,1,0-9.714A6.688,6.688,0,0,1,8.721,1.921a6.74,6.74,0,0,1,4.857,11.536A6.782,6.782,0,0,1,3.864,13.579Z" transform="translate(-0.1 -0.1)" fill="#fff"/>
  </g>
</svg>
