<svg xmlns="http://www.w3.org/2000/svg" xmlns:xlink="http://www.w3.org/1999/xlink" width="20.285" height="18.759" viewBox="0 0 20.285 18.759">
  <defs>
    <clipPath id="clip-path">
      <rect width="20.285" height="18.759" fill="none"/>
    </clipPath>
  </defs>
  <g id="folder" clip-path="url(#clip-path)">
    <path id="folder-2" data-name="folder" d="M19.413,18.759H.872A.938.938,0,0,1,0,17.886V.872A.938.938,0,0,1,.872,0H6.435C7.089,0,7.525.654,8.18,1.527c.218.218.545.654.763.872h10.47a.938.938,0,0,1,.872.872V17.886A.938.938,0,0,1,19.413,18.759ZM1.745,17.014h16.8V4.144H8.616c-.654,0-1.091-.654-1.854-1.527a2.375,2.375,0,0,0-.545-.872H1.745Z" transform="translate(-0.001 0)" fill="#fff"/>
  </g>
</svg>
