<svg id="Group_2459" data-name="Group 2459" xmlns="http://www.w3.org/2000/svg" width="24.198" height="21.293" viewBox="0 0 24.198 21.293">
  <path id="Path_2057" data-name="Path 2057" d="M436.813,82.1a5.674,5.674,0,0,1,5.674,5.674v8.689a1.249,1.249,0,0,1-1.247,1.249h-3.183a1.247,1.247,0,0,1-1.247-1.247v0Z" transform="translate(-423.964 -76.419)" fill="#0077ff"/>
  <path id="Path_2058" data-name="Path 2058" d="M361.742,46.287A5.663,5.663,0,0,1,363.41,50.3H353.3a1.247,1.247,0,0,1-1.247-1.247V45.869A1.247,1.247,0,0,1,353.3,44.62h4.43A5.657,5.657,0,0,1,361.742,46.287Z" transform="translate(-352.05 -44.62)" fill="#01e7ff"/>
  <path id="Path_2059" data-name="Path 2059" d="M391.144,83.727a5.653,5.653,0,0,1,4.013-1.667V96.423a1.247,1.247,0,0,1-1.246,1.249h-3.184a1.247,1.247,0,0,1-1.247-1.247V87.741A5.662,5.662,0,0,1,391.144,83.727Z" transform="translate(-383.807 -76.386)" fill="#0077ff"/>
  <path id="Path_2060" data-name="Path 2060" d="M448.179,45.924v3.183a1.247,1.247,0,0,1-1.246,1.249h-10.1A5.674,5.674,0,0,1,442.5,44.68h4.429A1.247,1.247,0,0,1,448.179,45.924Z" transform="translate(-423.981 -44.671)" fill="#01e7ff"/>
</svg>
